<svg xmlns="http://www.w3.org/2000/svg" width="28.95" height="28.949" viewBox="0 0 28.95 28.949">
  <path id="inst" d="M11.553,3A8.561,8.561,0,0,0,3,11.553V23.4a8.561,8.561,0,0,0,8.553,8.553H23.4A8.561,8.561,0,0,0,31.95,23.4V11.553A8.561,8.561,0,0,0,23.4,3ZM25.37,8.264a1.316,1.316,0,1,1-1.316,1.316A1.32,1.32,0,0,1,25.37,8.264Zm-7.9,1.974a7.237,7.237,0,1,1-7.237,7.237A7.242,7.242,0,0,1,17.475,10.237Zm0,1.316A5.922,5.922,0,1,0,23.4,17.475,5.93,5.93,0,0,0,17.475,11.553Z" transform="translate(-3 -3)" fill="#fff"/>
</svg>
