<svg xmlns="http://www.w3.org/2000/svg" width="296.734" height="89" viewBox="0 0 296.734 89"><path d="M134-522.5H-137a5.507,5.507,0,0,1-5.5-5.5v-78a5.507,5.507,0,0,1,5.5-5.5H134a5.474,5.474,0,0,1,2.011.38,4.363,4.363,0,0,1,3.208,2.838l14.734,39.717a4.5,4.5,0,0,1,0,3.131l-14.734,39.717a4.363,4.363,0,0,1-3.207,2.838A5.473,5.473,0,0,1,134-522.5Zm-271-88a4.506,4.506,0,0,0-4.5,4.5v78a4.505,4.505,0,0,0,4.5,4.5H134a4.475,4.475,0,0,0,1.68-.324l.043-.017.045-.009a3.339,3.339,0,0,0,2.514-2.215l14.734-39.717a3.5,3.5,0,0,0,0-2.435l-14.734-39.717a3.339,3.339,0,0,0-2.514-2.215l-.045-.009-.043-.017A4.477,4.477,0,0,0,134-610.5Z" transform="translate(142.5 611.5)" fill="#c83bff"/></svg>