<svg xmlns="http://www.w3.org/2000/svg" width="86.076" height="110.108" viewBox="0 0 86.076 110.108"><g transform="translate(-697.478 -222.123)"><path d="M814.831,365.684,790.574,351.55V347.2l24.257-14,24.257,14v4.35ZM792.574,350.4l22.257,12.968L837.087,350.4v-2.046L814.831,335.5l-22.257,12.85Z" transform="translate(-55.533 -66.282)" fill="#fff"/><path d="M740.114,372.777H703.508l-.068-.927-5.962-81.61h48.665l-2.03,27.788-1.995-.146,1.873-25.643H699.63l5.737,78.537h32.888l.936-12.809,1.995.146Z" transform="translate(0 -40.546)" fill="#fff"/><path d="M833.086,423.142h-36.51l-5.994-47.413,1.984-.251,5.773,45.664h32.984l5.773-45.664,1.984.251Z" transform="translate(-55.533 -90.911)" fill="#fff"/><path d="M-1-1H2.763V109.694H-1Z" transform="translate(746.655 223.325) rotate(13.213)" fill="#fff"/><path d="M43.975,1H0V-1H43.975Z" transform="translate(699.823 268.068)" fill="#fff"/></g></svg>