<svg xmlns="http://www.w3.org/2000/svg" width="86.253" height="99.596" viewBox="0 0 86.253 99.596"><g transform="translate(-512.954 -575.085)"><path d="M556.081,674.681l-43.126-24.9v-49.8l43.126-24.9,43.126,24.9v49.8Zm-41.126-26.054,41.126,23.744,41.126-23.744V601.138l-41.126-23.744-41.126,23.744Z" transform="translate(0)" fill="#fff"/><path d="M42.126-1A43.137,43.137,0,0,1,58.913,81.863,43.137,43.137,0,0,1,25.339,2.389,42.857,42.857,0,0,1,42.126-1Zm0,84.253A41.126,41.126,0,1,0,1,42.126,41.173,41.173,0,0,0,42.126,83.253Z" transform="translate(513.954 582.756)" fill="#fff"/><path d="M34.386-1A35.4,35.4,0,0,1,48.16,66.991,35.395,35.395,0,0,1,20.612,1.781,35.165,35.165,0,0,1,34.386-1Zm0,68.772A33.386,33.386,0,1,0,1,34.386,33.424,33.424,0,0,0,34.386,67.772Z" transform="translate(521.695 590.497)" fill="#fff"/><path d="M600.033,648.109V616.556h2v26.725l12.425-12.425,1.414,1.414Z" transform="translate(-44.952 -20.812)" fill="#fff"/></g></svg>