<svg xmlns="http://www.w3.org/2000/svg" width="117.622" height="97.668" viewBox="0 0 117.622 97.668"><g transform="translate(-109.494 -620.455)"><path d="M-1-1H116.622V75.91H-1ZM114.622,1H1V73.91H114.622Z" transform="translate(110.494 621.455)" fill="#fff"/><path d="M-1-1H105.518V64.806H-1ZM103.518,1H1V62.806H103.518Z" transform="translate(116.046 627.007)" fill="#fff"/><path d="M-1-1H14.925V18.593H-1ZM12.925,1H1V16.593H12.925Z" transform="translate(161.343 696.365)" fill="#fff"/><path d="M-1-1H43.416V4.165H-1ZM41.416,1H1V2.165H41.416Z" transform="translate(147.097 713.958)" fill="#fff"/><g transform="translate(135.774 644.276)"><path d="M207.854,694.446a17.172,17.172,0,0,1-9.862-3.392,56.121,56.121,0,0,1-7.64-6.772,52.031,52.031,0,0,1-7.785,6.8,18.571,18.571,0,0,1-10.507,3.36,16,16,0,0,1-6.108-1.166,14.249,14.249,0,0,1-4.843-3.266,14.7,14.7,0,0,1-3.163-4.967,17.187,17.187,0,0,1-1.124-6.235,15.348,15.348,0,0,1,1.2-5.969,15.573,15.573,0,0,1,3.34-4.983,16.056,16.056,0,0,1,11.487-4.682,17.17,17.17,0,0,1,9.86,3.391,56.144,56.144,0,0,1,7.642,6.773,52.041,52.041,0,0,1,7.787-6.805,18.567,18.567,0,0,1,10.5-3.359,16.149,16.149,0,0,1,6.149,1.165,14.129,14.129,0,0,1,4.841,3.268,14.623,14.623,0,0,1,3.14,4.969,17.351,17.351,0,0,1,1.109,6.231,15.35,15.35,0,0,1-1.2,5.969,15.573,15.573,0,0,1-3.34,4.983A16.055,16.055,0,0,1,207.854,694.446Zm-17.5-12.994.707.707.7.7c4.476,4.494,9.55,9.589,16.1,9.589a13.689,13.689,0,0,0,14.029-13.634c0-8.027-5.444-13.634-13.239-13.634-7.317,0-12.27,4.962-17.059,9.761l-.526.526-.707.707-.707-.707-.7-.7c-4.476-4.493-9.55-9.586-16.1-9.586a13.689,13.689,0,0,0-14.03,13.634c0,8.028,5.444,13.634,13.239,13.634,7.319,0,12.273-4.964,17.064-9.765l.522-.523Zm17.6,7.062c-5.172,0-8.992-3.759-12.362-7.076-.679-.668-1.32-1.3-1.962-1.892l-.755-.7,1.037-1.065c3.76-3.864,8.439-8.673,14.337-8.673a9.263,9.263,0,0,1,6.738,2.764,9.869,9.869,0,0,1,2.667,6.936,9.713,9.713,0,0,1-9.7,9.7Zm-12.22-9.732c.414.4.83.807,1.261,1.231,3.247,3.2,6.605,6.5,10.959,6.5a7.71,7.71,0,0,0,7.7-7.7c0-4.462-3.114-7.7-7.405-7.7C203.371,671.112,199.317,675.1,195.732,678.781Zm-23.277,9.732a9.262,9.262,0,0,1-6.738-2.764,9.872,9.872,0,0,1-2.667-6.938,9.713,9.713,0,0,1,9.7-9.7c5.171,0,8.99,3.757,12.36,7.073.679.669,1.321,1.3,1.964,1.893l.755.7-1.038,1.065C183.033,683.7,178.353,688.514,172.455,688.514Zm.3-17.4a7.71,7.71,0,0,0-7.7,7.7c0,4.463,3.114,7.7,7.405,7.7,4.877,0,8.932-3.993,12.516-7.671-.414-.4-.831-.808-1.263-1.233C180.462,674.415,177.1,671.112,172.752,671.112Z" transform="translate(-157.821 -664.178)" fill="#fff"/></g></g></svg>