<svg xmlns="http://www.w3.org/2000/svg" width="113.676" height="82.546" viewBox="0 0 113.676 82.546"><g transform="translate(-409.994 -340.325)"><path d="M-1-1H49.76V49.76H-1ZM47.76,1H1V47.76H47.76Z" transform="translate(422.791 361.315)" fill="#fff"/><path d="M-1-1H112.676V73.353H-1ZM110.676,1H1V71.353H110.676Z" transform="translate(410.994 349.518)" fill="#fff"/><path d="M24.38-1a25.386,25.386,0,0,1,9.879,48.765A25.386,25.386,0,0,1,14.5.995,25.222,25.222,0,0,1,24.38-1Zm0,48.76A23.38,23.38,0,1,0,1,24.38,23.406,23.406,0,0,0,24.38,47.76Z" transform="translate(422.791 361.315)" fill="#fff"/><path d="M-1-1H38.75V9.193H-1ZM36.75,1H1V7.193H36.75Z" transform="translate(484.92 341.325)" fill="#fff"/><path d="M468.326,429.451,453.7,421.005V404.113l14.629-8.446,14.629,8.446v16.892Zm-12.629-9.6,12.629,7.292,12.629-7.292V405.267l-12.629-7.292L455.7,405.267Z" transform="translate(-21.155 -26.864)" fill="#fff"/></g></svg>