<svg xmlns="http://www.w3.org/2000/svg" width="109.146" height="68.167" viewBox="0 0 109.146 68.167"><g transform="translate(-862.355 -592.308)"><path d="M1002.178,651.81l-8.469-12.049h-69.3V592.308h78.245V638.2c.042,1.7.234,10.06-.019,11.325ZM926.41,637.762h68.338l6.014,8.557c.006-2.316-.045-5.58-.107-8.083V594.308H926.41Z" transform="translate(-31.263)" fill="#fff"/><path d="M862.894,693.814l-.457-2.287c-.145-.724-.062-4.8-.019-6.528V658.482h45.348v27.842H868.159Zm1.523-33.332v24.554c-.027,1.077-.046,2.213-.056,3.213l2.759-3.925h38.645V660.482Z" transform="translate(0 -33.338)" fill="#fff"/><g transform="translate(906.743 611.417)"><path d="M4.4-1A5.4,5.4,0,1,1-1,4.4,5.4,5.4,0,0,1,4.4-1Zm0,8.8A3.4,3.4,0,1,0,1,4.4,3.4,3.4,0,0,0,4.4,7.8Z" transform="translate(42.365 0)" fill="#fff"/><path d="M4.4-1A5.4,5.4,0,1,1-1,4.4,5.4,5.4,0,0,1,4.4-1Zm0,8.8A3.4,3.4,0,1,0,1,4.4,3.4,3.4,0,0,0,4.4,7.8Z" transform="translate(21.457 0)" fill="#fff"/><path d="M4.4-1A5.4,5.4,0,1,1-1,4.4,5.4,5.4,0,0,1,4.4-1Zm0,8.8A3.4,3.4,0,1,0,1,4.4,3.4,3.4,0,0,0,4.4,7.8Z" transform="translate(0 0)" fill="#fff"/></g></g></svg>