<svg xmlns="http://www.w3.org/2000/svg" width="100.017" height="100.017" viewBox="0 0 100.017 100.017"><g transform="translate(-109.638 -282.222)"><g transform="translate(138.002 296.817)"><path d="M187.849,311.928a41.668,41.668,0,0,1,11.946,1.555,21.927,21.927,0,0,1,8.431,4.536,17.988,17.988,0,0,1,4.782,6.616,22.421,22.421,0,0,1,1.71,8.841c0,6.528-1.918,11.814-5.7,15.712a23.833,23.833,0,0,1-9.609,6.028,43.429,43.429,0,0,1-18.9,1.6v27.935H169.429V313.437l.836-.139A107.53,107.53,0,0,1,187.849,311.928Zm-1.043,43.288c8.9,0,16.277-2.629,20.759-7.4l.012-.012c3.411-3.512,5.141-8.332,5.141-14.324,0-5.757-2.063-10.712-5.808-13.952l-.015-.013c-4.117-3.706-10.525-5.584-19.046-5.584a106.549,106.549,0,0,0-16.42,1.207v67.619H178.5V354.309l1.243.311A30.991,30.991,0,0,0,186.806,355.216Zm1.252-36.091a26.451,26.451,0,0,1,7.085.883,15.816,15.816,0,0,1,5.582,2.735,12.291,12.291,0,0,1,3.648,4.675,15.773,15.773,0,0,1,1.27,6.477,17.294,17.294,0,0,1-1.295,6.833,13.474,13.474,0,0,1-3.77,5.082,16.5,16.5,0,0,1-5.9,3.08,26.739,26.739,0,0,1-7.662,1.025,30.922,30.922,0,0,1-7.765-.763l-.746-.2V320.087l.742-.2A39.019,39.019,0,0,1,188.057,319.125Zm-1.043,28.789c10.567,0,16.628-5.11,16.628-14.02,0-11.11-9.765-12.769-15.585-12.769a44.085,44.085,0,0,0-7.554.529v25.738A32.751,32.751,0,0,0,187.014,347.914Z" transform="translate(-170.429 -312.928)" fill="#fff"/></g><path d="M-1-1H99.017V99.017H-1ZM97.017,1H1V97.017H97.017Z" transform="translate(110.638 283.222)" fill="#fff"/><path d="M-1-1H90.727V90.727H-1ZM88.727,1H1V88.727H88.727Z" transform="translate(114.783 287.367)" fill="#fff"/></g></svg>