<?xml version="1.0" encoding="utf-8"?><svg viewBox="0 0 296.734 89" xmlns="http://www.w3.org/2000/svg" xmlns:xlink="http://www.w3.org/1999/xlink"><style>:root>svg{display:none}:root>svg:target{display:block}</style><svg viewBox="0 0 17.513 86.97" id="button-lines" xmlns="http://www.w3.org/2000/svg"><path d="M17.264 42.075L2.53 2.358A3.848 3.848 0 00.218 0a9.3 9.3 0 01-.035 1.624 1.151 1.151 0 01-.1.338v.228a2.066 2.066 0 01.579.864L15.396 42.77a2.016 2.016 0 010 1.392L.662 83.878a1.978 1.978 0 01-.655.89q.039 1.1.093 2.2a3.824 3.824 0 002.437-2.4l14.734-39.717a4.01 4.01 0 000-2.782z"/></svg><svg viewBox="0 0 11.339 27.026" id="form-icon" xmlns="http://www.w3.org/2000/svg"><path d="M.788 27.026l-.776-.631L10.07 14.016 0 .599l.8-.6 10.539 14.04-.246.3z"/></svg><svg viewBox="0 0 28.95 28.949" id="inst" xmlns="http://www.w3.org/2000/svg"><path d="M8.553 0A8.561 8.561 0 000 8.553V20.4a8.561 8.561 0 008.553 8.553H20.4a8.561 8.561 0 008.55-8.553V8.553A8.561 8.561 0 0020.4 0zM22.37 5.264a1.316 1.316 0 11-1.316 1.316 1.32 1.32 0 011.316-1.316zm-7.9 1.974a7.237 7.237 0 11-7.237 7.237 7.242 7.242 0 017.242-7.238zm0 1.316a5.922 5.922 0 105.93 5.921 5.93 5.93 0 00-5.925-5.922z"/></svg><svg viewBox="0 0 32.313 11.938" id="left-arrow-nav" xmlns="http://www.w3.org/2000/svg"><path d="M5.734 0l1.237 1.183-3.778 3.939h29.12v1.721H3.227l3.744 3.912-1.237 1.184L0 5.969z"/></svg><svg viewBox="0 0 32.313 11.938" id="right-arrow" xmlns="http://www.w3.org/2000/svg"><path d="M26.58 0l-1.237 1.183 3.778 3.939H0v1.721h29.087l-3.744 3.912 1.237 1.184 5.733-5.97z"/></svg><svg viewBox="0 0 32.313 11.938" id="right-arrow-nav" xmlns="http://www.w3.org/2000/svg"><path d="M26.58 0l-1.237 1.183 3.778 3.939H0v1.721h29.087l-3.744 3.912 1.237 1.184 5.733-5.97z"/></svg><svg viewBox="0 0 296.734 89" id="secondary-button" xmlns="http://www.w3.org/2000/svg"><path d="M276.5 89H5.5A5.507 5.507 0 010 83.5v-78A5.507 5.507 0 015.5 0h271a5.474 5.474 0 012.011.38 4.363 4.363 0 013.208 2.838l14.734 39.717a4.5 4.5 0 010 3.131l-14.734 39.717a4.363 4.363 0 01-3.207 2.838A5.473 5.473 0 01276.5 89zM5.5 1A4.506 4.506 0 001 5.5v78A4.505 4.505 0 005.5 88h271a4.475 4.475 0 001.68-.324l.043-.017.045-.009a3.339 3.339 0 002.514-2.215l14.734-39.717a3.5 3.5 0 000-2.435L280.782 3.566a3.339 3.339 0 00-2.514-2.215l-.045-.009-.043-.017A4.477 4.477 0 00276.5 1z"/></svg></svg>